<svg xmlns="http://www.w3.org/2000/svg" xmlns:xlink="http://www.w3.org/1999/xlink" viewBox="0 0 85 85" fill="#fff" fill-rule="evenodd" stroke="#000" stroke-linecap="round" stroke-linejoin="round"><use xlink:href="#A" x="2.5" y="2.5"/><symbol id="A" overflow="visible"><path d="M0 15.556h20V20H0zm30 0h20V20H30z" fill="#4b612c" stroke="none"/><path d="M0 0h20v17.245H0z" fill="#759c3e" stroke="none"/><path d="M60 15.556h20V20H60zm-60 30h20V50H0zm30 0h20V50H30zm30 0h20V50H60zm-60 30h20v4.445H0zm30 0h20v4.445H30zm30 0h20v4.445H60z" stroke="none" fill="#4b612c"/><path d="M30 0h20v17.245H30zm30 0h20v17.245H60zM0 30h20v17.245H0zm30 0h20v17.245H30zm30 0h20v17.245H60zM0 60h20v17.245H0zm30 0h20v17.245H30zm30 0h20v17.245H60z" stroke="none" fill="#759c3e"/></symbol></svg>